<?xml version="1.0" encoding="UTF-8" standalone="no"?>
<!DOCTYPE svg PUBLIC "-//W3C//DTD SVG 1.1//EN"
 "http://www.w3.org/Graphics/SVG/1.1/DTD/svg11.dtd">
<!-- Generated by graphviz version 13.0.1 (20250615.1724)
 -->
<!-- Title: G Pages: 1 -->
<svg width="606pt" height="985pt"
 viewBox="0.00 0.00 606.00 985.00" xmlns="http://www.w3.org/2000/svg" xmlns:xlink="http://www.w3.org/1999/xlink">
<g id="graph0" class="graph" transform="scale(1 1) rotate(0) translate(20.16 964.59)">
<title>G</title>
<polygon fill="white" stroke="none" points="-20.16,20.16 -20.16,-964.59 585.49,-964.59 585.49,20.16 -20.16,20.16"/>
<!-- start -->
<g id="node1" class="node">
<title>start</title>
<polygon fill="#fcfcfc" stroke="#2f2f2f" stroke-width="1.6" points="442.08,-944.43 386.04,-944.43 386.04,-903.9 442.08,-903.9 442.08,-944.43"/>
<text xml:space="preserve" text-anchor="middle" x="414.06" y="-920.59" font-family="Microsoft YaHei" font-size="16.00" fill="#111111">开始</text>
</g>
<!-- req -->
<g id="node2" class="node">
<title>req</title>
<polygon fill="#fcfcfc" stroke="#2f2f2f" stroke-width="1.6" points="475.08,-844.9 353.04,-844.9 353.04,-804.37 475.08,-804.37 475.08,-844.9"/>
<text xml:space="preserve" text-anchor="middle" x="414.06" y="-821.06" font-family="Microsoft YaHei" font-size="16.00" fill="#111111">系统需求分析</text>
</g>
<!-- start&#45;&gt;req -->
<g id="edge1" class="edge">
<title>start&#45;&gt;req</title>
<path fill="none" stroke="#2b2b2b" stroke-width="1.35" d="M414.06,-903.43C414.06,-889.64 414.06,-870.98 414.06,-855.39"/>
<polygon fill="#2b2b2b" stroke="#2b2b2b" stroke-width="1.35" points="416.86,-855.72 414.06,-847.72 411.26,-855.72 416.86,-855.72"/>
</g>
<!-- overall -->
<g id="node3" class="node">
<title>overall</title>
<polygon fill="#fcfcfc" stroke="#2f2f2f" stroke-width="1.6" points="475.08,-745.37 353.04,-745.37 353.04,-704.84 475.08,-704.84 475.08,-745.37"/>
<text xml:space="preserve" text-anchor="middle" x="414.06" y="-721.53" font-family="Microsoft YaHei" font-size="16.00" fill="#111111">总体方案设计</text>
</g>
<!-- req&#45;&gt;overall -->
<g id="edge2" class="edge">
<title>req&#45;&gt;overall</title>
<path fill="none" stroke="#2b2b2b" stroke-width="1.35" d="M414.06,-803.9C414.06,-790.11 414.06,-771.45 414.06,-755.86"/>
<polygon fill="#2b2b2b" stroke="#2b2b2b" stroke-width="1.35" points="416.86,-756.19 414.06,-748.19 411.26,-756.19 416.86,-756.19"/>
</g>
<!-- hardware -->
<g id="node4" class="node">
<title>hardware</title>
<polygon fill="#fcfcfc" stroke="#2f2f2f" stroke-width="1.6" points="524.58,-645.84 303.54,-645.84 303.54,-582.06 524.58,-582.06 524.58,-645.84"/>
<text xml:space="preserve" text-anchor="middle" x="414.06" y="-622" font-family="Microsoft YaHei" font-size="16.00" fill="#111111">硬件设计</text>
<text xml:space="preserve" text-anchor="middle" x="414.06" y="-598.75" font-family="Microsoft YaHei" font-size="16.00" fill="#111111">（传感器选型、电路设计）</text>
</g>
<!-- overall&#45;&gt;hardware -->
<g id="edge3" class="edge">
<title>overall&#45;&gt;hardware</title>
<path fill="none" stroke="#2b2b2b" stroke-width="1.35" d="M414.06,-704.08C414.06,-690.73 414.06,-672.69 414.06,-656.33"/>
<polygon fill="#2b2b2b" stroke="#2b2b2b" stroke-width="1.35" points="416.86,-656.46 414.06,-648.46 411.26,-656.46 416.86,-656.46"/>
</g>
<!-- integ -->
<g id="node5" class="node">
<title>integ</title>
<polygon fill="#fcfcfc" stroke="#2f2f2f" stroke-width="1.6" points="393.83,-523.06 222.29,-523.06 222.29,-482.53 393.83,-482.53 393.83,-523.06"/>
<text xml:space="preserve" text-anchor="middle" x="308.06" y="-499.22" font-family="Microsoft YaHei" font-size="16.00" fill="#111111">系统集成与联合调试</text>
</g>
<!-- hardware&#45;&gt;integ -->
<g id="edge4" class="edge">
<title>hardware&#45;&gt;integ</title>
<path fill="none" stroke="#2b2b2b" stroke-width="1.35" d="M383.4,-581.38C367.85,-565.36 349.15,-546.11 334.28,-530.79"/>
<polygon fill="#2b2b2b" stroke="#2b2b2b" stroke-width="1.35" points="336.32,-528.87 328.73,-525.08 332.3,-532.77 336.32,-528.87"/>
</g>
<!-- matlab -->
<g id="node6" class="node">
<title>matlab</title>
<polygon fill="#fcfcfc" stroke="#2f2f2f" stroke-width="1.6" points="203.7,-423.53 52.42,-423.53 52.42,-383 203.7,-383 203.7,-423.53"/>
<text xml:space="preserve" text-anchor="middle" x="128.06" y="-399.69" font-family="Microsoft YaHei" font-size="16.00" fill="#111111">MATLAB仿真验证</text>
</g>
<!-- integ&#45;&gt;matlab -->
<g id="edge5" class="edge">
<title>integ&#45;&gt;matlab</title>
<path fill="none" stroke="#2b2b2b" stroke-width="1.35" d="M271.2,-481.82C242.93,-466.5 203.76,-445.28 173.54,-428.91"/>
<polygon fill="#2b2b2b" stroke="#2b2b2b" stroke-width="1.35" points="175.04,-426.53 166.67,-425.18 172.37,-431.46 175.04,-426.53"/>
</g>
<!-- platform -->
<g id="node7" class="node">
<title>platform</title>
<polygon fill="#fcfcfc" stroke="#2f2f2f" stroke-width="1.6" points="369.08,-423.53 247.04,-423.53 247.04,-383 369.08,-383 369.08,-423.53"/>
<text xml:space="preserve" text-anchor="middle" x="308.06" y="-399.69" font-family="Microsoft YaHei" font-size="16.00" fill="#111111">实物平台测试</text>
</g>
<!-- integ&#45;&gt;platform -->
<g id="edge6" class="edge">
<title>integ&#45;&gt;platform</title>
<path fill="none" stroke="#2b2b2b" stroke-width="1.35" d="M308.06,-482.06C308.06,-468.27 308.06,-449.61 308.06,-434.02"/>
<polygon fill="#2b2b2b" stroke="#2b2b2b" stroke-width="1.35" points="310.86,-434.35 308.06,-426.35 305.26,-434.35 310.86,-434.35"/>
</g>
<!-- decision -->
<g id="node8" class="node">
<title>decision</title>
<polygon fill="#f6f6f6" stroke="#2f2f2f" stroke-width="1.6" points="183.06,-324 0,-282.03 183.06,-240.06 366.12,-282.03 183.06,-324"/>
<text xml:space="preserve" text-anchor="middle" x="183.06" y="-278.45" font-family="Microsoft YaHei" font-size="16.00" fill="#111111">结果是否满足要求？</text>
</g>
<!-- matlab&#45;&gt;decision -->
<g id="edge7" class="edge">
<title>matlab&#45;&gt;decision</title>
<path fill="none" stroke="#2b2b2b" stroke-width="1.35" d="M137.27,-382.31C143.91,-367.9 153.16,-347.84 161.61,-329.52"/>
<polygon fill="#2b2b2b" stroke="#2b2b2b" stroke-width="1.35" points="164.15,-330.72 164.96,-322.28 159.06,-328.37 164.15,-330.72"/>
</g>
<!-- platform&#45;&gt;decision -->
<g id="edge8" class="edge">
<title>platform&#45;&gt;decision</title>
<path fill="none" stroke="#2b2b2b" stroke-width="1.35" d="M287.14,-382.31C270.35,-366.3 246.24,-343.3 225.45,-323.47"/>
<polygon fill="#2b2b2b" stroke="#2b2b2b" stroke-width="1.35" points="227.46,-321.51 219.74,-318.01 223.59,-325.56 227.46,-321.51"/>
</g>
<!-- optimize -->
<g id="node9" class="node">
<title>optimize</title>
<polygon fill="#fcfcfc" stroke="#2f2f2f" stroke-width="1.6" points="368.58,-163.31 279.54,-163.31 279.54,-122.78 368.58,-122.78 368.58,-163.31"/>
<text xml:space="preserve" text-anchor="middle" x="324.06" y="-139.47" font-family="Microsoft YaHei" font-size="16.00" fill="#111111">优化设计</text>
</g>
<!-- decision&#45;&gt;optimize -->
<g id="edge11" class="edge">
<title>decision&#45;&gt;optimize</title>
<path fill="none" stroke="#2b2b2b" stroke-width="1.35" d="M217.55,-247.52C241.83,-223.93 273.89,-192.78 296.48,-170.84"/>
<polygon fill="#2b2b2b" stroke="#2b2b2b" stroke-width="1.35" points="298.2,-173.07 301.99,-165.49 294.3,-169.06 298.2,-173.07"/>
<text xml:space="preserve" text-anchor="middle" x="277.09" y="-198.71" font-family="Microsoft YaHei" font-size="13.00" fill="#1a1a1a">否</text>
</g>
<!-- finish -->
<g id="node11" class="node">
<title>finish</title>
<polygon fill="#fcfcfc" stroke="#2f2f2f" stroke-width="1.6" points="236.08,-163.31 114.04,-163.31 114.04,-122.78 236.08,-122.78 236.08,-163.31"/>
<text xml:space="preserve" text-anchor="middle" x="175.06" y="-139.47" font-family="Microsoft YaHei" font-size="16.00" fill="#111111">完成课题研究</text>
</g>
<!-- decision&#45;&gt;finish -->
<g id="edge9" class="edge">
<title>decision&#45;&gt;finish</title>
<path fill="none" stroke="#2b2b2b" stroke-width="1.35" d="M180.66,-239.93C179.41,-218.55 177.91,-192.91 176.78,-173.53"/>
<polygon fill="#2b2b2b" stroke="#2b2b2b" stroke-width="1.35" points="179.59,-173.61 176.33,-165.78 174,-173.93 179.59,-173.61"/>
<text xml:space="preserve" text-anchor="middle" x="185.57" y="-198.71" font-family="Microsoft YaHei" font-size="13.00" fill="#1a1a1a">是</text>
</g>
<!-- software -->
<g id="node10" class="node">
<title>software</title>
<polygon fill="#fcfcfc" stroke="#2f2f2f" stroke-width="1.6" points="565.33,-63.78 360.79,-63.78 360.79,0 565.33,0 565.33,-63.78"/>
<text xml:space="preserve" text-anchor="middle" x="463.06" y="-39.94" font-family="Microsoft YaHei" font-size="16.00" fill="#111111">软件设计</text>
<text xml:space="preserve" text-anchor="middle" x="463.06" y="-16.69" font-family="Microsoft YaHei" font-size="16.00" fill="#111111">（算法设计、程序编写）</text>
</g>
<!-- optimize&#45;&gt;software -->
<g id="edge12" class="edge">
<title>optimize&#45;&gt;software</title>
<path fill="none" stroke="#2b2b2b" stroke-width="1.35" d="M349.55,-122.02C367.85,-107.65 393.07,-87.86 415.08,-70.57"/>
<polygon fill="#2b2b2b" stroke="#2b2b2b" stroke-width="1.35" points="416.55,-72.97 421.11,-65.83 413.09,-68.57 416.55,-72.97"/>
</g>
<!-- software&#45;&gt;hardware -->
<g id="edge13" class="edge">
<title>software&#45;&gt;hardware</title>
<path fill="none" stroke="#2b2b2b" stroke-width="1.35" d="M479.84,-64.46C496.97,-96.7 521.06,-142.05 521.06,-142.05 521.06,-503.79 521.06,-503.79 521.06,-503.79 521.06,-503.79 482.64,-542.99 451.85,-574.4"/>
<polygon fill="#2b2b2b" stroke="#2b2b2b" stroke-width="1.35" points="450.04,-572.25 446.44,-579.92 454.04,-576.17 450.04,-572.25"/>
</g>
<!-- software&#45;&gt;integ -->
<g id="edge14" class="edge">
<title>software&#45;&gt;integ</title>
<path fill="none" stroke="#2b2b2b" stroke-width="1.35" d="M457.23,-64.53C440.09,-157.52 391.06,-423.53 391.06,-423.53 391.06,-423.53 360.29,-452.55 336.22,-475.24"/>
<polygon fill="#2b2b2b" stroke="#2b2b2b" stroke-width="1.35" points="334.39,-473.12 330.49,-480.64 338.23,-477.19 334.39,-473.12"/>
</g>
<!-- end -->
<g id="node12" class="node">
<title>end</title>
<polygon fill="#fcfcfc" stroke="#2f2f2f" stroke-width="1.6" points="203.08,-52.16 147.04,-52.16 147.04,-11.62 203.08,-11.62 203.08,-52.16"/>
<text xml:space="preserve" text-anchor="middle" x="175.06" y="-28.32" font-family="Microsoft YaHei" font-size="16.00" fill="#111111">结束</text>
</g>
<!-- finish&#45;&gt;end -->
<g id="edge10" class="edge">
<title>finish&#45;&gt;end</title>
<path fill="none" stroke="#2b2b2b" stroke-width="1.35" d="M175.06,-122.02C175.06,-105.41 175.06,-81.53 175.06,-62.67"/>
<polygon fill="#2b2b2b" stroke="#2b2b2b" stroke-width="1.35" points="177.86,-62.83 175.06,-54.83 172.26,-62.83 177.86,-62.83"/>
</g>
</g>
</svg>
